<svg viewBox="0 0 150 150" fill="none" xmlns="http://www.w3.org/2000/svg">
<path d="M148 75C148 115.317 115.317 148 75 148V150C116.421 150 150 116.421 150 75H148ZM75 148C34.6832 148 2 115.317 2 75H0C0 116.421 33.5786 150 75 150V148ZM2 75C2 34.6832 34.6832 2 75 2V0C33.5786 0 0 33.5786 0 75H2ZM75 2C115.317 2 148 34.6832 148 75H150C150 33.5786 116.421 0 75 0V2ZM74 2V75.4981H76V2H74ZM74 75.4981C74 102.592 80.5339 118.697 88.8891 127.777C97.2516 136.865 107.341 138.804 114.155 137.734L113.845 135.759C107.659 136.73 98.2484 134.995 90.3609 126.423C82.4661 117.843 76 102.303 76 75.4981H74ZM74 75.4981C74 102.303 67.5339 117.843 59.6391 126.423C51.7516 134.995 42.3414 136.73 36.1551 135.759L35.8449 137.734C42.6586 138.804 52.7484 136.865 61.1109 127.777C69.4661 118.697 76 102.592 76 75.4981H74Z" fill="white"/>
</svg>
